<?xml version="1.0" encoding="utf-8"?>
<!-- Generator: Adobe Illustrator 16.0.3, SVG Export Plug-In . SVG Version: 6.00 Build 0)  -->
<!DOCTYPE svg PUBLIC "-//W3C//DTD SVG 1.1//EN" "http://www.w3.org/Graphics/SVG/1.1/DTD/svg11.dtd">
<svg version="1.1" id="layer" xmlns="http://www.w3.org/2000/svg" xmlns:xlink="http://www.w3.org/1999/xlink" x="0px" y="0px"
	 width="547.804px" height="114.218px" viewBox="19.995 359.317 547.804 114.218"
	 enable-background="new 19.995 359.317 547.804 114.218" xml:space="preserve">
<path fill="#E12744" d="M285.041,415.558h-14.517v25.564c0,4.839,0,10.773-6.848,10.773c-7.03,0-7.03-5.935-7.03-10.773v-25.564
	h-14.517v28.76c0,12.965,7.122,19.265,21.456,19.265c14.334,0,21.364-6.208,21.364-19.265v-28.76H285.041z M289.514,462.487h13.056
	v-17.986c0-5.478,2.922-6.573,5.205-6.573c3.834,0,4.291,2.738,4.291,6.665v17.895h13.057v-23.373
	c0-7.852-5.57-11.595-11.688-11.595c-5.203,0-8.674,1.734-11.139,5.204h-0.092v-4.291h-12.599v34.055H289.514z M329.869,462.487
	h13.057v-34.055h-13.057V462.487z M329.869,424.688h13.057v-9.13h-13.057V424.688z M382.732,428.341h-13.33l-5.387,20.726h-0.09
	l-5.297-20.726h-13.785l11.229,34.056h15.43L382.732,428.341z M394.054,441.579c0.547-3.651,2.83-5.752,6.756-5.752
	c3.379,0,5.752,2.557,5.752,5.752H394.054z M418.978,448.336c0-13.238-5.842-20.816-19.447-20.816
	c-10.773,0-18.076,8.125-18.076,17.986c0,11.321,8.217,17.803,19.172,17.803c7.762,0,14.975-3.378,17.621-10.773h-12.143
	c-1.096,1.644-3.377,2.466-5.479,2.466c-4.107,0-6.299-2.739-6.664-6.665H418.978L418.978,448.336z M421.808,462.487h13.057v-13.513
	c0-7.304,2.74-10.316,7.943-10.316c2.648,0,3.834,0.365,5.113,0.821v-11.504c-1.279-0.365-2.465-0.548-3.836-0.548
	c-4.746,0-7.486,2.191-9.586,6.3h-0.092v-5.478h-12.6V462.487z M482.707,438.293c-0.365-8.766-9.221-10.773-16.617-10.773
	c-6.848,0-16.16,2.19-16.16,10.864c0,5.844,4.018,9.039,13.969,10.683c6.027,1.096,7.213,1.644,7.213,3.651
	c0,2.009-2.738,2.648-4.383,2.648c-1.551,0-2.83-0.365-3.469-1.005c-1.004-0.821-1.553-1.826-1.553-3.013h-12.508
	c0.184,8.765,9.039,12.052,17.074,12.052c8.309,0,17.346-2.557,17.346-12.052c0-5.569-3.834-8.126-8.125-9.495
	c-4.383-1.461-9.313-1.734-11.504-2.647c-0.73-0.365-1.553-0.822-1.553-1.735c0-2.191,2.102-2.647,3.926-2.647
	c1.096,0,2.102,0.365,2.922,1.004c0.822,0.548,1.461,1.461,1.553,2.557h11.869V438.293z M486.541,462.487h13.057v-34.055h-13.057
	V462.487z M486.541,424.688h13.057v-9.13h-13.057V424.688z M521.328,418.023h-13.057v10.409h-5.752v8.034h5.752v16.251
	c0,9.313,6.117,10.226,11.686,10.226c2.74,0,5.752-0.364,8.4-0.364v-9.861c-1.004,0.092-2.008,0.183-2.922,0.183
	c-3.287,0-4.018-1.369-4.018-4.564v-11.869h6.939v-8.034h-7.029V418.023z M567.798,428.341h-13.512l-5.57,19.538l0,0l-5.477-19.538
	h-13.971l5.752,15.704c0.73,2.009,5.752,14.517,5.752,16.16c0,1.552-0.455,2.191-1.277,2.557c-0.912,0.456-2.648,0.365-3.926,0.365
	h-3.014v10.408h5.936c5.113,0,10.316,0.091,13.785-4.2c2.01-2.557,3.197-6.482,4.291-9.495L567.798,428.341z M242.312,406.246
	h13.695v-30.129h0.091l8.126,30.129h10.773l8.126-30.129h0.091v30.129h13.695v-46.929h-20.634l-6.756,27.573h-0.091l-6.756-27.573
	h-20.634v46.929H242.312z M337.265,372.099h-13.057v17.986c0,5.478-2.922,6.573-5.203,6.573c-3.836,0-4.293-2.739-4.293-6.665
	v-17.895h-13.055v23.373c0,7.852,5.568,11.595,11.686,11.595c5.205,0,8.674-1.734,11.139-5.204h0.092v4.291h12.6v-34.055H337.265z
	 M341.738,406.246h13.057v-13.513c0-7.304,2.738-10.317,7.943-10.317c2.646,0,3.834,0.365,5.113,0.822v-11.504
	c-1.279-0.365-2.467-0.548-3.836-0.548c-4.748,0-7.486,2.191-9.586,6.3h-0.184v-5.479h-12.508V406.246z M405.375,359.317H392.32
	v16.525h-0.092c-2.01-2.922-5.479-4.565-9.313-4.565c-11.504,0-14.518,9.679-14.518,17.713c0,8.582,4.656,18.077,14.334,18.077
	c6.391,0,8.4-2.465,10.043-4.564h0.092v3.743h12.508V359.317z M392.775,389.173c0,4.108-1.096,8.491-5.752,8.491
	s-5.752-4.383-5.752-8.491c0-4.018,1.096-8.399,5.752-8.399C391.771,380.773,392.775,385.155,392.775,389.173L392.775,389.173z
	 M444.361,389.173c0-9.495-5.752-17.896-18.625-17.896c-12.875,0-18.627,8.4-18.627,17.896s5.752,17.895,18.627,17.895
	C438.609,407.067,444.361,398.577,444.361,389.173L444.361,389.173z M431.304,389.173c0,3.652-0.639,8.491-5.568,8.491
	c-4.932,0-5.57-4.839-5.57-8.491s0.639-8.399,5.57-8.399C430.666,380.773,431.304,385.52,431.304,389.173L431.304,389.173z
	 M483.164,385.064c-0.822-9.404-8.4-13.787-17.348-13.787c-10.316,0-18.533,7.122-18.533,17.896s8.217,17.895,18.533,17.895
	c9.221,0,16.525-5.204,17.803-14.425h-12.508c-0.273,2.738-2.281,5.021-5.111,5.021c-5.023,0-5.752-4.292-5.752-8.4
	s0.729-8.49,5.752-8.49c1.369,0,2.465,0.365,3.285,1.096c0.822,0.729,1.279,1.825,1.461,3.195H483.164L483.164,385.064z
	 M486.359,406.246h13.057V388.26c0-5.479,2.92-6.574,5.203-6.574c3.834,0,4.291,2.739,4.291,6.665v17.896h13.057v-23.373
	c0-7.852-5.57-11.596-11.688-11.596c-5.568,0-8.398,1.918-10.682,4.565h-0.092v-16.525h-13.055v46.929H486.359z M218.482,417.11
	v-57.337h-29.216v58.25c0,14.518-7.578,21.273-19.082,21.273c-11.595,0-19.082-7.121-19.082-22.004v-57.52H132.66v-0.091h-32.229
	l-24.925,40.264l-24.925-40.355H19.995v103.535h27.665v-60.897l1.095,1.735l26.66,40.72h0.091l23.464-35.06l3.561-5.387v0.092
	l19.173-28.577v41.998c0,32.412,18.534,47.294,48.024,47.294C199.31,465.135,218.482,450.527,218.482,417.11"/>
</svg>
