<?xml version="1.0" encoding="utf-8"?>
<!-- Generator: Adobe Illustrator 16.0.0, SVG Export Plug-In . SVG Version: 6.00 Build 0)  -->
<!DOCTYPE svg PUBLIC "-//W3C//DTD SVG 1.1//EN" "http://www.w3.org/Graphics/SVG/1.1/DTD/svg11.dtd">
<svg version="1.1" id="layer" xmlns="http://www.w3.org/2000/svg" xmlns:xlink="http://www.w3.org/1999/xlink" x="0px" y="0px"
	 width="547.804px" height="114.218px" viewBox="0 0 547.804 114.218" enable-background="new 0 0 547.804 114.218"
	 xml:space="preserve">
<path fill="#BB404C" d="M265.046,56.241H250.53v25.564c0,4.838,0,10.771-6.848,10.771c-7.03,0-7.03-5.934-7.03-10.771V56.241
	h-14.517V85c0,12.965,7.122,19.266,21.456,19.266c14.334,0,21.364-6.209,21.364-19.266v-28.76H265.046L265.046,56.241z
	 M269.52,103.17h13.056V85.184c0-5.479,2.922-6.574,5.205-6.574c3.834,0,4.291,2.738,4.291,6.666v17.895h13.057V79.797
	c0-7.852-5.57-11.596-11.688-11.596c-5.203,0-8.674,1.734-11.139,5.205h-0.092v-4.291h-12.6v34.055H269.52L269.52,103.17z
	 M309.875,103.17h13.057V69.114h-13.057V103.17z M309.875,65.37h13.057v-9.129h-13.057V65.37z M362.738,69.024h-13.33l-5.387,20.727
	h-0.09l-5.297-20.727h-13.785l11.229,34.057h15.43L362.738,69.024z M374.06,82.262c0.547-3.652,2.83-5.752,6.756-5.752
	c3.379,0,5.752,2.557,5.752,5.752H374.06z M398.984,89.018c0-13.238-5.842-20.816-19.447-20.816
	c-10.773,0-18.076,8.125-18.076,17.986c0,11.322,8.217,17.803,19.172,17.803c7.763,0,14.976-3.377,17.621-10.771h-12.143
	c-1.096,1.643-3.377,2.465-5.479,2.465c-4.107,0-6.299-2.738-6.664-6.664h25.016V89.018z M401.814,103.17h13.057V89.657
	c0-7.305,2.74-10.316,7.943-10.316c2.648,0,3.834,0.365,5.113,0.82V68.657c-1.279-0.363-2.465-0.547-3.836-0.547
	c-4.746,0-7.486,2.191-9.586,6.299h-0.092v-5.477h-12.602v34.238H401.814z M462.712,78.975c-0.365-8.766-9.221-10.773-16.617-10.773
	c-6.848,0-16.16,2.191-16.16,10.865c0,5.844,4.02,9.039,13.971,10.684c6.025,1.096,7.213,1.643,7.213,3.65s-2.738,2.648-4.385,2.648
	c-1.551,0-2.828-0.365-3.469-1.006c-1.004-0.82-1.553-1.826-1.553-3.014h-12.508c0.184,8.766,9.039,12.053,17.074,12.053
	c8.309,0,17.346-2.557,17.346-12.053c0-5.568-3.834-8.125-8.125-9.494c-4.383-1.461-9.313-1.734-11.504-2.646
	c-0.73-0.365-1.553-0.822-1.553-1.736c0-2.189,2.102-2.646,3.926-2.646c1.096,0,2.102,0.365,2.922,1.004
	c0.822,0.549,1.461,1.461,1.553,2.557h11.869V78.975z M466.546,103.17h13.057V69.114h-13.057V103.17z M466.546,65.37h13.057v-9.129
	h-13.057V65.37z M501.333,58.706h-13.057v10.408h-5.752v8.035h5.752v16.25c0,9.314,6.117,10.227,11.686,10.227
	c2.74,0,5.752-0.363,8.4-0.363v-9.861c-1.004,0.092-2.008,0.184-2.922,0.184c-3.287,0-4.018-1.369-4.018-4.564V77.151h6.939v-8.035
	h-7.029V58.706L501.333,58.706z M547.804,69.024h-13.512l-5.57,19.537l0,0l-5.477-19.537h-13.973l5.752,15.703
	c0.73,2.01,5.752,14.518,5.752,16.16c0,1.553-0.453,2.191-1.275,2.557c-0.912,0.457-2.648,0.365-3.926,0.365h-3.016v10.408h5.938
	c5.111,0,10.314,0.092,13.785-4.199c2.01-2.557,3.195-6.482,4.291-9.496L547.804,69.024z M222.318,46.928h13.695V16.799h0.091
	l8.126,30.129h10.773l8.125-30.129h0.092v30.129h13.695V0h-20.635l-6.756,27.572h-0.091L242.678,0h-20.634v46.928H222.318
	L222.318,46.928z M317.271,12.782h-13.057v17.986c0,5.477-2.922,6.572-5.203,6.572c-3.836,0-4.293-2.738-4.293-6.664V12.78h-13.055
	v23.373c0,7.854,5.567,11.596,11.686,11.596c5.205,0,8.674-1.734,11.139-5.203h0.092v4.291h12.6V12.78h0.092V12.782z
	 M321.744,46.928H334.8V33.417c0-7.305,2.738-10.318,7.943-10.318c2.646,0,3.834,0.365,5.113,0.822V12.417
	c-1.279-0.365-2.467-0.549-3.836-0.549c-4.748,0-7.486,2.191-9.586,6.301h-0.184V12.69h-12.509L321.744,46.928L321.744,46.928z
	 M385.38,0h-13.055v16.523h-0.092c-2.01-2.922-5.479-4.564-9.313-4.564c-11.504,0-14.519,9.68-14.519,17.713
	c0,8.582,4.656,18.078,14.334,18.078c6.392,0,8.399-2.467,10.043-4.564h0.093v3.742h12.508V0L385.38,0z M372.781,29.856
	c0,4.107-1.096,8.49-5.752,8.49s-5.752-4.383-5.752-8.49c0-4.018,1.096-8.398,5.752-8.398
	C371.777,21.456,372.781,25.838,372.781,29.856L372.781,29.856z M424.367,29.856c0-9.496-5.752-17.896-18.625-17.896
	c-12.875,0-18.627,8.4-18.627,17.896s5.752,17.895,18.627,17.895C418.615,47.75,424.367,39.26,424.367,29.856L424.367,29.856z
	 M411.31,29.856c0,3.652-0.639,8.49-5.568,8.49c-4.932,0-5.57-4.838-5.57-8.49s0.64-8.398,5.57-8.398
	C410.671,21.456,411.31,26.202,411.31,29.856L411.31,29.856z M463.169,25.747c-0.822-9.404-8.4-13.787-17.348-13.787
	c-10.316,0-18.533,7.123-18.533,17.896s8.217,17.895,18.533,17.895c9.221,0,16.525-5.203,17.803-14.426h-12.508
	c-0.273,2.738-2.281,5.021-5.111,5.021c-5.023,0-5.752-4.291-5.752-8.4c0-4.107,0.729-8.488,5.752-8.488
	c1.369,0,2.465,0.363,3.285,1.096c0.822,0.729,1.279,1.824,1.461,3.195h12.418V25.747z M466.365,46.928h13.057V28.942
	c0-5.479,2.92-6.574,5.203-6.574c3.834,0,4.291,2.74,4.291,6.666V46.93h13.057V23.557c0-7.852-5.57-11.596-11.688-11.596
	c-5.568,0-8.398,1.918-10.682,4.564h-0.092V0h-13.055v46.93h-0.092V46.928z M198.488,57.793V0.456h-29.216v58.25
	c0,14.518-7.578,21.273-19.082,21.273c-11.595,0-19.082-7.121-19.082-22.004V0.456h-18.442V0.364H80.437L55.512,40.627L30.587,0.272
	H0.001v103.535h27.665V42.911l1.095,1.734l26.66,40.721h0.091l23.464-35.061l3.561-5.387v0.092l19.173-28.576v41.998
	c0,32.412,18.534,47.293,48.024,47.293C179.316,105.817,198.488,91.209,198.488,57.793"/>
</svg>
